<?xml version="1.0" encoding="UTF-8"?>
<svg xmlns="http://www.w3.org/2000/svg" viewBox="0 0 1200 900" width="1200" height="900">
  <defs>
    <!-- Gradients for each typology -->
    <linearGradient id="enthusiastGrad" x1="0%" y1="0%" x2="100%" y2="100%">
      <stop offset="0%" style="stop-color:#10B981;stop-opacity:1" />
      <stop offset="100%" style="stop-color:#059669;stop-opacity:1" />
    </linearGradient>
    <linearGradient id="cautiousGrad" x1="0%" y1="0%" x2="100%" y2="100%">
      <stop offset="0%" style="stop-color:#F59E0B;stop-opacity:1" />
      <stop offset="100%" style="stop-color:#D97706;stop-opacity:1" />
    </linearGradient>
    <linearGradient id="moderateGrad" x1="0%" y1="0%" x2="100%" y2="100%">
      <stop offset="0%" style="stop-color:#6366F1;stop-opacity:1" />
      <stop offset="100%" style="stop-color:#4F46E5;stop-opacity:1" />
    </linearGradient>
    <linearGradient id="anxiousGrad" x1="0%" y1="0%" x2="100%" y2="100%">
      <stop offset="0%" style="stop-color:#EF4444;stop-opacity:1" />
      <stop offset="100%" style="stop-color:#DC2626;stop-opacity:1" />
    </linearGradient>
    
    <!-- Shadow filter -->
    <filter id="shadow" x="-20%" y="-20%" width="140%" height="140%">
      <feDropShadow dx="2" dy="4" stdDeviation="4" flood-opacity="0.15"/>
    </filter>
    
    <!-- Glow filter for icons -->
    <filter id="glow">
      <feGaussianBlur stdDeviation="2" result="coloredBlur"/>
      <feMerge>
        <feMergeNode in="coloredBlur"/>
        <feMergeNode in="SourceGraphic"/>
      </feMerge>
    </filter>
  </defs>
  
  <!-- Background -->
  <rect width="1200" height="900" fill="#F8FAFC"/>
  
  <!-- Subtle grid pattern -->
  <pattern id="grid" width="40" height="40" patternUnits="userSpaceOnUse">
    <path d="M 40 0 L 0 0 0 40" fill="none" stroke="#E2E8F0" stroke-width="0.5"/>
  </pattern>
  <rect width="1200" height="900" fill="url(#grid)" opacity="0.5"/>
  
  <!-- Header Section -->
  <rect x="0" y="0" width="1200" height="100" fill="#1E293B"/>
  <text x="600" y="45" font-family="Arial, sans-serif" font-size="32" font-weight="bold" fill="white" text-anchor="middle">AIRS User Typology</text>
  <text x="600" y="75" font-family="Arial, sans-serif" font-size="16" fill="#94A3B8" text-anchor="middle">Four Distinct AI Adoption Profiles • N=523 • K-means Cluster Analysis</text>
  
  <!-- Center Visualization - 2x2 Matrix -->
  <!-- Axes labels -->
  <text x="600" y="140" font-family="Arial, sans-serif" font-size="14" fill="#64748B" text-anchor="middle" font-weight="bold">BEHAVIORAL INTENTION →</text>
  <text x="80" y="440" font-family="Arial, sans-serif" font-size="14" fill="#64748B" text-anchor="middle" font-weight="bold" transform="rotate(-90 80 440)">ANXIETY LEVEL →</text>
  
  <!-- Matrix quadrant backgrounds -->
  <rect x="120" y="160" width="480" height="260" fill="#FEF2F2" rx="8" opacity="0.6"/>
  <rect x="600" y="160" width="480" height="260" fill="#FEF3C7" rx="8" opacity="0.6"/>
  <rect x="120" y="420" width="480" height="260" fill="#EDE9FE" rx="8" opacity="0.6"/>
  <rect x="600" y="420" width="480" height="260" fill="#D1FAE5" rx="8" opacity="0.6"/>
  
  <!-- Matrix labels -->
  <text x="360" y="185" font-family="Arial, sans-serif" font-size="11" fill="#991B1B" text-anchor="middle" font-style="italic">High Anxiety + Low Intent</text>
  <text x="840" y="185" font-family="Arial, sans-serif" font-size="11" fill="#92400E" text-anchor="middle" font-style="italic">High Anxiety + High Intent</text>
  <text x="360" y="445" font-family="Arial, sans-serif" font-size="11" fill="#5B21B6" text-anchor="middle" font-style="italic">Low Anxiety + Low Intent</text>
  <text x="840" y="445" font-family="Arial, sans-serif" font-size="11" fill="#065F46" text-anchor="middle" font-style="italic">Low Anxiety + High Intent</text>
  
  <!-- ====== ANXIOUS AVOIDERS (Top Left) ====== -->
  <g transform="translate(360, 310)">
    <circle r="85" fill="url(#anxiousGrad)" filter="url(#shadow)"/>
    <circle r="70" fill="none" stroke="white" stroke-width="2" stroke-dasharray="4,4" opacity="0.5"/>
    
    <!-- Shield with X icon -->
    <path d="M0,-35 L20,-25 L20,5 C20,20 0,30 0,30 C0,30 -20,20 -20,5 L-20,-25 Z" fill="white" opacity="0.9"/>
    <path d="M-8,-8 L8,8 M8,-8 L-8,8" stroke="#DC2626" stroke-width="3" stroke-linecap="round"/>
    
    <text y="55" font-family="Arial, sans-serif" font-size="14" font-weight="bold" fill="white" text-anchor="middle">ANXIOUS</text>
    <text y="72" font-family="Arial, sans-serif" font-size="14" font-weight="bold" fill="white" text-anchor="middle">AVOIDERS</text>
  </g>
  
  <!-- Anxious Avoiders Stats -->
  <g transform="translate(200, 220)">
    <rect x="0" y="0" width="100" height="70" fill="white" rx="6" filter="url(#shadow)"/>
    <text x="50" y="22" font-family="Arial, sans-serif" font-size="28" font-weight="bold" fill="#DC2626" text-anchor="middle">17%</text>
    <text x="50" y="42" font-family="Arial, sans-serif" font-size="12" fill="#64748B" text-anchor="middle">n = 91</text>
    <text x="50" y="58" font-family="Arial, sans-serif" font-size="10" fill="#94A3B8" text-anchor="middle">Resistant</text>
  </g>
  
  <!-- ====== CAUTIOUS ADOPTERS (Top Right) ====== -->
  <g transform="translate(840, 310)">
    <circle r="100" fill="url(#cautiousGrad)" filter="url(#shadow)"/>
    <circle r="85" fill="none" stroke="white" stroke-width="2" stroke-dasharray="4,4" opacity="0.5"/>
    
    <!-- Magnifying glass icon -->
    <circle cx="-5" cy="-10" r="18" fill="none" stroke="white" stroke-width="3"/>
    <line x1="8" y1="3" x2="22" y2="17" stroke="white" stroke-width="3" stroke-linecap="round"/>
    <text x="-5" y="-5" font-family="Arial, sans-serif" font-size="14" fill="white" text-anchor="middle">?</text>
    
    <text y="55" font-family="Arial, sans-serif" font-size="14" font-weight="bold" fill="white" text-anchor="middle">CAUTIOUS</text>
    <text y="72" font-family="Arial, sans-serif" font-size="14" font-weight="bold" fill="white" text-anchor="middle">ADOPTERS</text>
  </g>
  
  <!-- Cautious Adopters Stats -->
  <g transform="translate(980, 220)">
    <rect x="0" y="0" width="100" height="70" fill="white" rx="6" filter="url(#shadow)"/>
    <text x="50" y="22" font-family="Arial, sans-serif" font-size="28" font-weight="bold" fill="#D97706" text-anchor="middle">30%</text>
    <text x="50" y="42" font-family="Arial, sans-serif" font-size="12" fill="#64748B" text-anchor="middle">n = 157</text>
    <text x="50" y="58" font-family="Arial, sans-serif" font-size="10" fill="#94A3B8" text-anchor="middle">Evaluating</text>
  </g>
  
  <!-- ====== MODERATE USERS (Bottom Left) ====== -->
  <g transform="translate(360, 550)">
    <circle r="110" fill="url(#moderateGrad)" filter="url(#shadow)"/>
    <circle r="95" fill="none" stroke="white" stroke-width="2" stroke-dasharray="4,4" opacity="0.5"/>
    
    <!-- Balance scale icon -->
    <line x1="0" y1="-30" x2="0" y2="0" stroke="white" stroke-width="3"/>
    <line x1="-25" y1="-20" x2="25" y2="-20" stroke="white" stroke-width="3"/>
    <circle cx="-25" cy="-15" r="10" fill="none" stroke="white" stroke-width="2"/>
    <circle cx="25" cy="-25" r="10" fill="none" stroke="white" stroke-width="2"/>
    <polygon points="0,-30 -5,-38 5,-38" fill="white"/>
    
    <text y="55" font-family="Arial, sans-serif" font-size="14" font-weight="bold" fill="white" text-anchor="middle">MODERATE</text>
    <text y="72" font-family="Arial, sans-serif" font-size="14" font-weight="bold" fill="white" text-anchor="middle">USERS</text>
  </g>
  
  <!-- Moderate Users Stats -->
  <g transform="translate(200, 480)">
    <rect x="0" y="0" width="100" height="70" fill="white" rx="6" filter="url(#shadow)"/>
    <text x="50" y="22" font-family="Arial, sans-serif" font-size="28" font-weight="bold" fill="#4F46E5" text-anchor="middle">37%</text>
    <text x="50" y="42" font-family="Arial, sans-serif" font-size="12" fill="#64748B" text-anchor="middle">n = 191</text>
    <text x="50" y="58" font-family="Arial, sans-serif" font-size="10" fill="#94A3B8" text-anchor="middle">Largest Group</text>
  </g>
  
  <!-- ====== AI ENTHUSIASTS (Bottom Right) ====== -->
  <g transform="translate(840, 550)">
    <circle r="90" fill="url(#enthusiastGrad)" filter="url(#shadow)"/>
    <circle r="75" fill="none" stroke="white" stroke-width="2" stroke-dasharray="4,4" opacity="0.5"/>
    
    <!-- Rocket icon -->
    <path d="M0,-35 C-8,-35 -12,-25 -12,-15 C-12,0 0,15 0,15 C0,15 12,0 12,-15 C12,-25 8,-35 0,-35 Z" fill="white" opacity="0.9"/>
    <circle cx="0" cy="-20" r="5" fill="#059669"/>
    <path d="M-15,-5 L-12,-15 L-8,-8 Z" fill="white" opacity="0.7"/>
    <path d="M15,-5 L12,-15 L8,-8 Z" fill="white" opacity="0.7"/>
    <path d="M-4,15 L0,25 L4,15" fill="#FCD34D"/>
    
    <text y="50" font-family="Arial, sans-serif" font-size="14" font-weight="bold" fill="white" text-anchor="middle">AI</text>
    <text y="67" font-family="Arial, sans-serif" font-size="14" font-weight="bold" fill="white" text-anchor="middle">ENTHUSIASTS</text>
  </g>
  
  <!-- AI Enthusiasts Stats -->
  <g transform="translate(980, 480)">
    <rect x="0" y="0" width="100" height="70" fill="white" rx="6" filter="url(#shadow)"/>
    <text x="50" y="22" font-family="Arial, sans-serif" font-size="28" font-weight="bold" fill="#059669" text-anchor="middle">16%</text>
    <text x="50" y="42" font-family="Arial, sans-serif" font-size="12" fill="#64748B" text-anchor="middle">n = 84</text>
    <text x="50" y="58" font-family="Arial, sans-serif" font-size="10" fill="#94A3B8" text-anchor="middle">Champions</text>
  </g>
  
  <!-- ====== BOTTOM SECTION: Key Metrics ====== -->
  <rect x="40" y="710" width="1120" height="170" fill="white" rx="12" filter="url(#shadow)"/>
  
  <!-- Section title -->
  <text x="600" y="745" font-family="Arial, sans-serif" font-size="18" font-weight="bold" fill="#1E293B" text-anchor="middle">Psychological Profile Comparison (Standardized Scores)</text>
  
  <!-- Metric bars for each type -->
  <!-- Labels -->
  <text x="180" y="780" font-family="Arial, sans-serif" font-size="11" fill="#64748B" text-anchor="middle">Performance</text>
  <text x="180" y="792" font-family="Arial, sans-serif" font-size="11" fill="#64748B" text-anchor="middle">Expectancy</text>
  <text x="350" y="786" font-family="Arial, sans-serif" font-size="11" fill="#64748B" text-anchor="middle">Trust</text>
  <text x="520" y="786" font-family="Arial, sans-serif" font-size="11" fill="#64748B" text-anchor="middle">Anxiety</text>
  <text x="690" y="780" font-family="Arial, sans-serif" font-size="11" fill="#64748B" text-anchor="middle">Behavioral</text>
  <text x="690" y="792" font-family="Arial, sans-serif" font-size="11" fill="#64748B" text-anchor="middle">Intention</text>
  <text x="860" y="786" font-family="Arial, sans-serif" font-size="11" fill="#64748B" text-anchor="middle">Effort Exp.</text>
  <text x="1030" y="786" font-family="Arial, sans-serif" font-size="11" fill="#64748B" text-anchor="middle">Habit</text>
  
  <!-- Bar chart baseline -->
  <line x1="100" y1="840" x2="1100" y2="840" stroke="#CBD5E1" stroke-width="1"/>
  <text x="85" y="844" font-family="Arial, sans-serif" font-size="10" fill="#94A3B8" text-anchor="end">0</text>
  
  <!-- Performance Expectancy bars -->
  <rect x="130" y="810" width="20" height="30" fill="#EF4444" rx="2"/> <!-- Anxious: -1.16 shown as small -->
  <rect x="152" y="805" width="20" height="35" fill="#F59E0B" rx="2"/> <!-- Cautious: +1.16 -->
  <rect x="174" y="815" width="20" height="25" fill="#6366F1" rx="2"/> <!-- Moderate: +0.26 -->
  <rect x="196" y="800" width="20" height="40" fill="#10B981" rx="2"/> <!-- Enthusiast: +1.42 -->
  
  <!-- Trust bars -->
  <rect x="300" y="818" width="20" height="22" fill="#EF4444" rx="2"/> <!-- -1.49 -->
  <rect x="322" y="808" width="20" height="32" fill="#F59E0B" rx="2"/> <!-- +0.86 -->
  <rect x="344" y="820" width="20" height="20" fill="#6366F1" rx="2"/> <!-- +0.01 -->
  <rect x="366" y="802" width="20" height="38" fill="#10B981" rx="2"/> <!-- +1.37 -->
  
  <!-- Anxiety bars (inverted - high anxiety = tall bar) -->
  <rect x="470" y="808" width="20" height="32" fill="#EF4444" rx="2"/> <!-- +0.76 high -->
  <rect x="492" y="806" width="20" height="34" fill="#F59E0B" rx="2"/> <!-- +0.84 elevated -->
  <rect x="514" y="812" width="20" height="28" fill="#6366F1" rx="2"/> <!-- +0.42 moderate -->
  <rect x="536" y="820" width="20" height="20" fill="#10B981" rx="2"/> <!-- -0.86 low -->
  
  <!-- Behavioral Intention bars -->
  <rect x="640" y="820" width="20" height="20" fill="#EF4444" rx="2"/> <!-- -1.53 -->
  <rect x="662" y="808" width="20" height="32" fill="#F59E0B" rx="2"/> <!-- +0.88 -->
  <rect x="684" y="820" width="20" height="20" fill="#6366F1" rx="2"/> <!-- -0.07 -->
  <rect x="706" y="802" width="20" height="38" fill="#10B981" rx="2"/> <!-- +1.32 -->
  
  <!-- Effort Expectancy bars -->
  <rect x="810" y="815" width="20" height="25" fill="#EF4444" rx="2"/> <!-- -0.48 -->
  <rect x="832" y="805" width="20" height="35" fill="#F59E0B" rx="2"/> <!-- +1.14 -->
  <rect x="854" y="812" width="20" height="28" fill="#6366F1" rx="2"/> <!-- +0.42 -->
  <rect x="876" y="800" width="20" height="40" fill="#10B981" rx="2"/> <!-- +1.45 -->
  
  <!-- Habit bars -->
  <rect x="980" y="822" width="20" height="18" fill="#EF4444" rx="2"/> <!-- -1.69 -->
  <rect x="1002" y="806" width="20" height="34" fill="#F59E0B" rx="2"/> <!-- +1.01 -->
  <rect x="1024" y="815" width="20" height="25" fill="#6366F1" rx="2"/> <!-- -0.42 -->
  <rect x="1046" y="806" width="20" height="34" fill="#10B981" rx="2"/> <!-- +1.03 -->
  
  <!-- Legend -->
  <g transform="translate(300, 855)">
    <rect x="0" y="0" width="12" height="12" fill="#EF4444" rx="2"/>
    <text x="18" y="10" font-family="Arial, sans-serif" font-size="10" fill="#64748B">Anxious Avoiders</text>
    
    <rect x="130" y="0" width="12" height="12" fill="#F59E0B" rx="2"/>
    <text x="148" y="10" font-family="Arial, sans-serif" font-size="10" fill="#64748B">Cautious Adopters</text>
    
    <rect x="270" y="0" width="12" height="12" fill="#6366F1" rx="2"/>
    <text x="288" y="10" font-family="Arial, sans-serif" font-size="10" fill="#64748B">Moderate Users</text>
    
    <rect x="390" y="0" width="12" height="12" fill="#10B981" rx="2"/>
    <text x="408" y="10" font-family="Arial, sans-serif" font-size="10" fill="#64748B">AI Enthusiasts</text>
  </g>
  
  <!-- Key insight callout -->
  <g transform="translate(850, 855)">
    <rect x="0" y="-5" width="250" height="22" fill="#F0FDF4" rx="4" stroke="#10B981" stroke-width="1"/>
    <text x="125" y="10" font-family="Arial, sans-serif" font-size="10" fill="#065F46" text-anchor="middle" font-weight="bold">💡 67% are "movable" segments (Cautious + Moderate)</text>
  </g>
  
</svg>
