<svg width="1200" height="300" xmlns="http://www.w3.org/2000/svg">
  <defs>
    <!-- Modern gradient background -->
    <linearGradient id="bg-gradient" x1="0%" y1="0%" x2="100%" y2="100%">
      <stop offset="0%" style="stop-color:#0f172a;stop-opacity:1" />
      <stop offset="50%" style="stop-color:#1e293b;stop-opacity:1" />
      <stop offset="100%" style="stop-color:#334155;stop-opacity:1" />
    </linearGradient>
    
    <!-- Accent gradients -->
    <linearGradient id="accent-blue" x1="0%" y1="0%" x2="100%" y2="0%">
      <stop offset="0%" style="stop-color:#3b82f6;stop-opacity:1" />
      <stop offset="100%" style="stop-color:#60a5fa;stop-opacity:1" />
    </linearGradient>
    
    <linearGradient id="accent-purple" x1="0%" y1="0%" x2="100%" y2="0%">
      <stop offset="0%" style="stop-color:#8b5cf6;stop-opacity:1" />
      <stop offset="100%" style="stop-color:#a78bfa;stop-opacity:1" />
    </linearGradient>
    
    <linearGradient id="accent-cyan" x1="0%" y1="0%" x2="100%" y2="0%">
      <stop offset="0%" style="stop-color:#06b6d4;stop-opacity:1" />
      <stop offset="100%" style="stop-color:#22d3ee;stop-opacity:1" />
    </linearGradient>
    
    <!-- Geometric pattern -->
    <pattern id="hexagon-pattern" x="0" y="0" width="60" height="52" patternUnits="userSpaceOnUse">
      <path d="M30 0 L45 13 L45 39 L30 52 L15 39 L15 13 Z" fill="none" stroke="white" stroke-width="0.5" opacity="0.08"/>
    </pattern>
    
    <!-- Animated shimmer effect -->
    <linearGradient id="shimmer" x1="0%" y1="0%" x2="100%" y2="0%">
      <stop offset="0%" style="stop-color:white;stop-opacity:0">
        <animate attributeName="offset" values="0;1" dur="3s" repeatCount="indefinite"/>
      </stop>
      <stop offset="50%" style="stop-color:white;stop-opacity:0.1">
        <animate attributeName="offset" values="0.5;1.5" dur="3s" repeatCount="indefinite"/>
      </stop>
      <stop offset="100%" style="stop-color:white;stop-opacity:0">
        <animate attributeName="offset" values="1;2" dur="3s" repeatCount="indefinite"/>
      </stop>
    </linearGradient>
  </defs>
  
  <!-- Background -->
  <rect width="1200" height="300" fill="url(#bg-gradient)"/>
  <rect width="1200" height="300" fill="url(#hexagon-pattern)"/>
  
  <!-- Decorative side panels -->
  <rect x="0" y="0" width="200" height="300" fill="url(#accent-blue)" opacity="0.05"/>
  <rect x="1000" y="0" width="200" height="300" fill="url(#accent-purple)" opacity="0.05"/>
  
  <!-- Left side data visualization bars -->
  <g opacity="0.2">
    <rect x="50" y="100" width="8" height="120" rx="4" fill="url(#accent-cyan)"/>
    <rect x="65" y="130" width="8" height="90" rx="4" fill="url(#accent-cyan)"/>
    <rect x="80" y="110" width="8" height="110" rx="4" fill="url(#accent-cyan)"/>
    <rect x="95" y="90" width="8" height="130" rx="4" fill="url(#accent-cyan)"/>
    <rect x="110" y="140" width="8" height="80" rx="4" fill="url(#accent-cyan)"/>
  </g>
  
  <!-- Right side data visualization bars -->
  <g opacity="0.2">
    <rect x="1082" y="120" width="8" height="100" rx="4" fill="url(#accent-purple)"/>
    <rect x="1097" y="95" width="8" height="125" rx="4" fill="url(#accent-purple)"/>
    <rect x="1112" y="135" width="8" height="85" rx="4" fill="url(#accent-purple)"/>
    <rect x="1127" y="105" width="8" height="115" rx="4" fill="url(#accent-purple)"/>
    <rect x="1142" y="125" width="8" height="95" rx="4" fill="url(#accent-purple)"/>
  </g>
  
  <!-- Structural equation model visualization (simplified path diagram) -->
  <g opacity="0.15">
    <!-- Latent variables (circles) -->
    <circle cx="320" cy="150" r="20" fill="none" stroke="url(#accent-blue)" stroke-width="2"/>
    <circle cx="420" cy="120" r="20" fill="none" stroke="url(#accent-blue)" stroke-width="2"/>
    <circle cx="420" cy="180" r="20" fill="none" stroke="url(#accent-blue)" stroke-width="2"/>
    <circle cx="880" cy="120" r="20" fill="none" stroke="url(#accent-purple)" stroke-width="2"/>
    <circle cx="880" cy="180" r="20" fill="none" stroke="url(#accent-purple)" stroke-width="2"/>
    <circle cx="980" cy="150" r="25" fill="none" stroke="url(#accent-cyan)" stroke-width="3"/>
    
    <!-- Paths (arrows) -->
    <path d="M 340 150 L 400 130" stroke="url(#accent-blue)" stroke-width="2" marker-end="url(#arrowhead)"/>
    <path d="M 340 150 L 400 170" stroke="url(#accent-blue)" stroke-width="2"/>
    <path d="M 440 120 L 860 125" stroke="white" stroke-width="1.5" stroke-dasharray="3,3"/>
    <path d="M 440 180 L 860 175" stroke="white" stroke-width="1.5" stroke-dasharray="3,3"/>
    <path d="M 900 130 L 960 145" stroke="url(#accent-cyan)" stroke-width="2.5"/>
    <path d="M 900 170 L 960 155" stroke="url(#accent-cyan)" stroke-width="2.5"/>
  </g>
  
  <!-- Top decorative line -->
  <rect x="0" y="0" width="1200" height="3" fill="url(#accent-cyan)"/>
  
  <!-- Main content area with subtle backdrop -->
  <rect x="200" y="40" width="800" height="180" rx="12" fill="black" opacity="0.15"/>
  
  <!-- Main title with glow effect -->
  <text x="600" y="110" font-family="'Inter', 'Segoe UI', system-ui, sans-serif" font-size="68" font-weight="800" 
        fill="white" text-anchor="middle" letter-spacing="2">
    AIRS
  </text>
  <text x="600" y="110" font-family="'Inter', 'Segoe UI', system-ui, sans-serif" font-size="68" font-weight="800" 
        fill="url(#accent-cyan)" text-anchor="middle" letter-spacing="2" opacity="0.3" 
        filter="blur(8px)">
    AIRS
  </text>
  
  <!-- Subtitle -->
  <text x="600" y="145" font-family="'Inter', 'Segoe UI', system-ui, sans-serif" font-size="24" font-weight="400" 
        fill="#94a3b8" text-anchor="middle" letter-spacing="1">
    AI Readiness Score
  </text>
  
  <!-- Description -->
  <text x="600" y="180" font-family="'Inter', 'Segoe UI', system-ui, sans-serif" font-size="16" font-weight="300" 
        fill="#cbd5e1" text-anchor="middle">
    Psychometric Validation · Structural Equation Modeling · UTAUT2 Extension
  </text>
  
  <!-- Key metrics -->
  <text x="600" y="205" font-family="'Inter', 'Segoe UI', system-ui, sans-serif" font-size="14" font-weight="500" 
        fill="#64748b" text-anchor="middle" letter-spacing="0.5">
    N=201  •  28 Items  •  13 Constructs  •  CFI=0.933
  </text>
  
  <!-- Bottom info bar -->
  <rect x="0" y="240" width="1200" height="60" fill="black" opacity="0.25"/>
  
  <!-- Technology badges with modern styling -->
  <g transform="translate(190, 258)">
    <rect width="155" height="34" rx="17" fill="url(#accent-blue)" opacity="0.25"/>
    <rect width="155" height="34" rx="17" fill="none" stroke="url(#accent-blue)" stroke-width="1.5"/>
    <text x="77.5" y="23" font-family="'Inter', 'Segoe UI', system-ui, sans-serif" font-size="13" font-weight="600" 
          fill="white" text-anchor="middle">
      🐍 Python 3.12
    </text>
  </g>
  
  <g transform="translate(365, 258)">
    <rect width="160" height="34" rx="17" fill="url(#accent-purple)" opacity="0.25"/>
    <rect width="160" height="34" rx="17" fill="none" stroke="url(#accent-purple)" stroke-width="1.5"/>
    <text x="80" y="23" font-family="'Inter', 'Segoe UI', system-ui, sans-serif" font-size="13" font-weight="600" 
          fill="white" text-anchor="middle">
      📊 SEM Analysis
    </text>
  </g>
  
  <g transform="translate(545, 258)">
    <rect width="160" height="34" rx="17" fill="url(#accent-cyan)" opacity="0.25"/>
    <rect width="160" height="34" rx="17" fill="none" stroke="url(#accent-cyan)" stroke-width="1.5"/>
    <text x="80" y="23" font-family="'Inter', 'Segoe UI', system-ui, sans-serif" font-size="13" font-weight="600" 
          fill="white" text-anchor="middle">
      ✓ Validated
    </text>
  </g>
  
  <g transform="translate(725, 258)">
    <rect width="160" height="34" rx="17" fill="white" opacity="0.1"/>
    <rect width="160" height="34" rx="17" fill="none" stroke="white" stroke-width="1.5"/>
    <text x="80" y="23" font-family="'Inter', 'Segoe UI', system-ui, sans-serif" font-size="13" font-weight="600" 
          fill="white" text-anchor="middle">
      🎓 Dissertation
    </text>
  </g>
  
  <!-- Bottom decorative line -->
  <rect x="0" y="297" width="1200" height="3" fill="url(#accent-purple)"/>
  
  <!-- Shimmer overlay effect -->
  <rect width="1200" height="300" fill="url(#shimmer)" opacity="0.5"/>
</svg>
